PathFileType	4	(x/y/z)	S08_P20_T11
DataRate	CameraRate	NumFrames	NumMarkers	Units	OrigDataRate	OrigDataStartFrame	OrigNumFrames
240	240	5	51	mm	240	1	386
Frame#	Time	Sternum			R.Acromium			L.Acromium			Top.Head			R.ASIS			L.ASIS			R.PSIS			L.PSIS			R.Great.Tro			L.Great.Tro			R.Iliac.Crest			L.Iliac.Crest			V.Sacral			R.Thigh.Upper.Post			R.Thigh.Lower.Ant			R.Thigh.Lower.Post			R.Thigh.Upper.Ant			R.Knee.Lat			R.Knee.Med			R.Shank.Upper.Post			R.Shank.Lower.Ant			R.Shank.Lower.Post			R.Shank.Upper.Ant			R.Ankle.Lat			R.Ankle.Med			R.Heel.Upper			R.Heel.Med			R.Heel.Lat			R.Toe.Lat			R.Toe.Med			R.Toe.Tip			L.Thigh.Upper.Post			L.Thigh.Lower.Ant			L.Thigh.Lower.Post			L.Thigh.Upper.Ant			L.Knee.Lat			L.Knee.Med			L.Shank.Upper.Post			L.Shank.Lower.Ant			L.Shank.Lower.Post			L.Shank.Upper.Ant			L.Ankle.Lat			L.Ankle.Med			L.Heel.Upper			L.Heel.Med			L.Heel.Lat			L.Toe.Lat			L.Toe.Med			L.Toe.Tip			Cervical.Spine			Back			
		X1	Y1	Z1	X2	Y2	Z2	X3	Y3	Z3	X4	Y4	Z4	X5	Y5	Z5	X6	Y6	Z6	X7	Y7	Z7	X8	Y8	Z8	X9	Y9	Z9	X10	Y10	Z10	X11	Y11	Z11	X12	Y12	Z12	X13	Y13	Z13	X14	Y14	Z14	X15	Y15	Z15	X16	Y16	Z16	X17	Y17	Z17	X18	Y18	Z18	X19	Y19	Z19	X20	Y20	Z20	X21	Y21	Z21	X22	Y22	Z22	X23	Y23	Z23	X24	Y24	Z24	X25	Y25	Z25	X26	Y26	Z26	X27	Y27	Z27	X28	Y28	Z28	X29	Y29	Z29	X30	Y30	Z30	X31	Y31	Z31	X32	Y32	Z32	X33	Y33	Z33	X34	Y34	Z34	X35	Y35	Z35	X36	Y36	Z36	X37	Y37	Z37	X38	Y38	Z38	X39	Y39	Z39	X40	Y40	Z40	X41	Y41	Z41	X42	Y42	Z42	X43	Y43	Z43	X44	Y44	Z44	X45	Y45	Z45	X46	Y46	Z46	X47	Y47	Z47	X48	Y48	Z48	X49	Y49	Z49	X50	Y50	Z50	X51	Y51	Z51	

1	0	NaN	NaN	NaN	-1423	1473.3	488.06	-1457.6	1494.4	154.76	-1420.2	1786.1	338.86	NaN	NaN	NaN	NaN	NaN	NaN	NaN	NaN	NaN	NaN	NaN	NaN	-1441.6	911.25	488.51	-1433.3	913.38	118.09	-1454	1088.7	463.75	-1449	1100.4	156.22	-1573.5	1001.4	295.38	-1503.2	720.56	468.51	-1440.9	613.63	428.95	-1521.5	634.16	446.08	-1425.4	701.98	453.32	-1514.6	522.74	422.25	-1532.7	533.46	294.35	-1630.3	360.71	421.91	NaN	NaN	NaN	-1643.5	285.03	409.41	-1558.9	358.97	412.5	-1686.9	124.18	366.46	-1646.2	133.57	286.02	-1738.3	89.209	320.63	-1726.6	59.51	293.97	-1733.5	64.653	354.65	-1558.8	38.307	400.03	-1540	51.396	281.4	-1475.5	58.649	327.71	-1371.1	700.73	131.58	-1254.6	651.29	149.18	-1323.4	625.9	147.21	-1301.2	724.83	126.82	-1268	546.45	164.25	-1257.8	543.32	289.65	-1280.2	360.4	161.86	-1188.9	291.97	175.73	-1262.1	288.01	175.96	NaN	NaN	NaN	-1195.2	122.31	182.44	-1167.5	137.61	270.16	-1234.1	76.05	232.64	-1209.9	50.855	264.41	-1218	53.48	202.1	-1049.3	93.423	164.5	NaN	NaN	NaN	-976.08	144.95	224.08	-1513.6	1527.9	323.25	-1560.8	1246.6	330.41
2	0.0041667	NaN	NaN	NaN	-1418.1	1472.4	487.77	-1452.9	1493.5	154.46	-1415.6	1785.3	338.53	NaN	NaN	NaN	NaN	NaN	NaN	NaN	NaN	NaN	NaN	NaN	NaN	-1437	910.59	488.36	-1428.2	912.47	117.88	-1449	1087.7	463.47	-1444	1099.5	155.94	-1568.5	1000.5	294.98	-1498.9	720.01	468.44	-1436.9	613.04	429	-1517.3	633.63	446.06	-1421.1	701.38	453.32	-1511	522.27	422.24	-1528.8	532.99	294.34	-1627.2	360.77	422.09	NaN	NaN	NaN	-1641.6	285.52	409.55	-1556.6	358.82	412.56	-1686	124.77	366.62	-1646.5	134.25	286.78	-1738	90.186	320.88	-1726.4	60.585	294.08	-1733.3	65.523	354.82	-1558.8	38.193	400.12	-1540	51.412	281.47	-1475.5	58.508	327.76	-1366.6	699.84	131.71	-1250.1	650.26	149.29	-1319	624.95	147.49	-1296.7	723.8	126.72	-1263.8	545.24	164.46	-1253.8	542.44	290.06	-1274.7	358.84	162.44	-1183.7	291.06	176.45	-1256.9	286.8	176.59	NaN	NaN	NaN	-1189	121.34	183.46	-1161.5	136.89	271.1	-1227.8	74.993	233.76	-1203.4	50.055	265.69	-1211.7	52.499	203.18	-1043.1	93.279	165.44	NaN	NaN	NaN	-970.16	145.38	225.1	-1508.7	1527.1	322.98	-1555.9	1245.7	330.21
3	0.0083333	NaN	NaN	NaN	-1413.1	1471.6	487.46	-1448.1	1492.6	154.14	-1410.8	1784.4	338.18	NaN	NaN	NaN	NaN	NaN	NaN	NaN	NaN	NaN	NaN	NaN	NaN	-1432.2	909.9	488.19	-1422.9	911.53	117.68	-1443.7	1086.8	463.19	-1438.8	1098.6	155.64	-1563.3	999.57	294.57	-1494.4	719.44	468.37	-1432.6	612.43	429.04	-1512.9	633.08	446.04	-1416.6	700.76	453.31	-1507.2	521.78	422.24	-1524.7	532.49	294.33	-1623.9	360.89	422.28	NaN	NaN	NaN	-1639.6	286.05	409.71	-1554.2	358.67	412.63	-1685.1	125.44	366.8	-1646.7	134.98	287.54	-1737.7	91.246	321.15	-1726.2	61.745	294.21	-1733.1	66.47	354.99	-1558.8	38.073	400.21	-1540	51.433	281.54	-1475.4	58.365	327.8	-1361.9	698.92	131.85	-1245.5	649.2	149.41	-1314.3	623.97	147.78	-1292	722.73	126.63	-1259.4	544	164.7	-1249.5	541.54	290.49	-1269.1	357.26	163.05	-1178.3	290.08	177.21	-1251.6	285.54	177.24	NaN	NaN	NaN	-1182.8	120.32	184.51	-1155.5	136.11	272.08	-1221.5	73.925	234.9	-1197	49.216	267	-1205.3	51.501	204.28	-1037	93.028	166.44	NaN	NaN	NaN	-964.2	145.67	226.21	-1503.7	1526.2	322.7	-1550.8	1244.8	329.99
4	0.0125	-1302.5	1226.6	301.81	-1407.9	1470.7	487.14	-1443.1	1491.7	153.8	-1405.9	1783.6	337.82	NaN	NaN	NaN	NaN	NaN	NaN	NaN	NaN	NaN	NaN	NaN	NaN	-1427.2	909.21	488.01	-1417.4	910.57	117.46	-1438.3	1085.8	462.9	-1433.4	1097.7	155.33	-1557.8	998.63	294.15	-1489.7	718.85	468.28	-1428.1	611.8	429.08	-1508.3	632.5	446	-1411.8	700.12	453.28	-1503.2	521.28	422.24	-1520.4	531.97	294.33	-1620.5	361.09	422.48	NaN	NaN	NaN	-1637.4	286.62	409.88	-1551.9	358.52	412.69	-1684.2	126.17	367	-1646.8	135.75	288.3	-1737.4	92.393	321.45	-1725.9	62.995	294.36	-1732.9	67.498	355.19	-1558.9	37.948	400.31	-1540	51.459	281.62	-1475.3	58.219	327.84	-1357	697.98	132.02	-1240.7	648.11	149.56	-1309.5	622.97	148.1	-1287	721.65	126.57	-1254.9	542.73	164.97	-1245	540.64	290.95	-1263.4	355.69	163.67	-1172.8	289.03	178.01	-1246.2	284.25	177.92	NaN	NaN	NaN	-1176.6	119.26	185.57	-1149.6	135.26	273.1	-1215.3	72.861	236.07	-1190.6	48.344	268.31	-1199.1	50.501	205.4	-1030.9	92.648	167.51	NaN	NaN	NaN	-958.28	145.77	227.38	-1498.5	1525.3	322.39	-1545.6	1243.8	329.76
5	0.016667	-1297.6	1225.8	301.47	-1402.6	1469.8	486.8	-1437.9	1490.7	153.44	-1400.9	1782.7	337.45	NaN	NaN	NaN	NaN	NaN	NaN	NaN	NaN	NaN	NaN	NaN	NaN	-1422.1	908.5	487.82	-1411.7	909.6	117.25	-1432.8	1084.8	462.6	-1427.8	1096.7	155.02	-1552.2	997.68	293.72	-1484.8	718.24	468.19	-1423.4	611.16	429.1	-1503.4	631.89	445.95	-1406.9	699.47	453.25	-1499.1	520.76	422.26	-1516	531.43	294.33	-1617.1	361.38	422.68	NaN	NaN	NaN	-1635.1	287.24	410.07	-1549.7	358.38	412.76	-1683.3	126.97	367.23	-1646.8	136.57	289.05	-1737	93.634	321.78	-1725.7	64.341	294.53	-1732.7	68.615	355.41	-1558.9	37.818	400.4	-1539.9	51.491	281.72	-1475.2	58.072	327.89	-1351.9	697.04	132.2	-1235.8	647	149.72	-1304.6	621.96	148.43	-1282	720.56	126.53	-1250.2	541.45	165.25	-1240.3	539.74	291.43	-1257.8	354.14	164.3	-1167.4	287.91	178.85	-1240.8	282.94	178.62	NaN	NaN	NaN	-1170.5	118.16	186.65	-1143.8	134.34	274.15	-1209.2	71.816	237.23	-1184.5	47.446	269.59	-1193	49.51	206.51	-1024.9	92.122	168.63	NaN	NaN	NaN	-952.47	145.65	228.62	-1493.2	1524.4	322.07	-1540.1	1242.8	329.51
